<?xml version="1.0" encoding="UTF-8" standalone="no"?>
<!-- Created with Inkscape (http://www.inkscape.org/) -->

<svg
   width="757.36432"
   height="357.67697"
   viewBox="0 0 200.38597 94.635364"
   version="1.1"
   id="svg1"
   xml:space="preserve"
   xmlns="http://www.w3.org/2000/svg"
   xmlns:svg="http://www.w3.org/2000/svg"><defs
     id="defs1" /><g
     id="layer2"
     transform="translate(-35.883105,-89.96297)"><g
       id="g51"
       transform="matrix(0.51993292,-0.09356608,0.09356608,0.51993292,-18.649204,79.698437)"
       style="fill:#ff5555"><path
         style="fill:#000000;fill-opacity:1;stroke-width:0.183074"
         d="m 72.547373,201.96403 2.384858,2.36934 -5.168048,2.7791 z"
         id="path35" /><g
         id="g2"
         style="fill:#209fb5;fill-opacity:1"><path
           style="display:inline;fill:#209fb5;fill-opacity:1;stroke-width:0.264583"
           d="m 107.55707,151.28664 95.07869,-95.078684 c 0,0 28.65583,6.460037 17.55808,17.558085 l -0.22085,0.220856 -94.74741,94.747403 z"
           id="path33" /><rect
           style="fill:#209fb5;fill-opacity:1;stroke-width:0.264583"
           id="rect33"
           width="2.6495035"
           height="60.216618"
           x="209.33675"
           y="-95.817764"
           transform="rotate(45)"
           ry="0" /><path
           style="display:inline;fill:#209fb5;fill-opacity:1;stroke-width:0.264583"
           d="m 103.8529,154.99081 19.93703,-19.93702 17.55808,17.55808 -0.22085,0.22086 -19.60575,19.60574 z"
           id="path34"
           transform="translate(-19.999584,20.25487)" /><path
           style="display:inline;fill:#209fb5;fill-opacity:1;stroke-width:0.248634"
           d="m 107.55707,152.34498 16.61017,16.38932 -2.94105,2.93867 -16.37751,-16.36431 z"
           id="path36" /><path
           style="display:inline;fill:#209fb5;fill-opacity:1;stroke-width:0.248634"
           d="m 83.853319,176.30402 16.610171,16.38932 -2.941051,2.93867 -16.37751,-16.36431 z"
           id="path37" /><path
           style="display:inline;fill:#209fb5;fill-opacity:1;stroke-width:0.232685"
           d="m 81.028598,180.31354 15.551838,15.33097 -20.58987,8.68886 -3.443194,-3.42768 z"
           id="path38" /></g></g><path
       style="fill:#000000;fill-opacity:1;stroke-width:0.384473"
       id="path41-5"
       d="m 215.28123,184.41349 c -13.01397,0.16931 -16.20559,0.23092 -19.81423,0.14871 -20.09006,-0.39063 -139.491791,-0.56633 -159.583895,-0.79922 l 1.445695,-1.04903 v 0 c 0,0 106.76392,-0.23718 111.44359,-0.26458 16.17496,-0.0948 34.24737,-0.1874 50.41637,-0.59308 0.0884,0.17991 6.92306,0.07 18.73731,-0.12351 z" /><path
       id="path52"
       style="font-style:italic;font-weight:bold;font-size:79.0222px;line-height:0.3;font-family:'JetBrainsMono Nerd Font';-inkscape-font-specification:'JetBrainsMono Nerd Font Bold Italic';text-align:center;text-anchor:middle;display:inline;fill:#000000;fill-opacity:1;stroke-width:0.384473"
       d="m 45.237929,94.931812 15.185931,37.076848 8.568043,-12.68835 c -0.339283,-1.06219 -0.678976,-2.18717 -1.01826,-3.37465 L 60.854139,94.931812 Z m 89.451601,0 -34.44869,83.825618 h 15.15745 l 7.80887,-20.32525 h 22.2769 l 1.37794,20.32525 h 14.23826 l -7.92299,-83.825618 z m 52.59243,0 -13.32062,83.825618 h 26.98518 c 8.49738,0 15.46372,-2.10562 20.89897,-6.31603 5.43526,-4.2104 8.7647,-10.06645 9.98954,-17.56862 0.84208,-5.28215 0.0385,-9.83692 -2.41122,-13.66455 -2.37314,-3.82764 -5.93261,-6.04752 -10.67889,-6.65994 l 0.11495,-0.22979 c 4.3635,-0.68897 8.11467,-2.67958 11.25334,-5.97134 3.21521,-3.29178 5.16671,-7.23388 5.85569,-11.82706 0.68897,-4.28695 0.19207,-8.03811 -1.49209,-11.25334 -1.68416,-3.29177 -4.3641,-5.818358 -8.03863,-7.579068 -3.67454,-1.83726 -8.15264,-2.75588 -13.43478,-2.75588 z m 11.94196,11.942688 h 11.59801 c 3.82763,0 6.65944,1.0329 8.4967,3.09981 1.91383,1.99037 2.60316,4.7079 2.06729,8.15278 -0.61242,3.52143 -2.18204,6.31564 -4.70829,8.38256 -2.52624,1.99038 -5.66475,2.98567 -9.41584,2.98567 h -11.598 z m -56.95532,0.57369 c 0,1.37796 0.0767,3.59786 0.22978,6.65996 0.1531,2.98556 0.38237,6.35408 0.68859,10.10517 l 1.49284,22.50669 h -17.10979 l 8.84212,-22.62158 c 1.37796,-3.67453 2.56495,-7.00472 3.56014,-9.99028 1.07174,-3.0621 1.83699,-5.282 2.29632,-6.65996 z m -64.985754,30.00693 -9.455632,14.00322 c 0.440496,1.36769 0.948511,2.73537 1.524379,4.10305 l 8.152776,23.19604 H 93.00644 Z m 116.544174,3.63823 h 12.28662 c 4.13385,0 7.23401,1.22457 9.30094,3.67427 2.06695,2.37314 2.7946,5.51163 2.18219,9.41581 -0.61243,3.90419 -2.33541,7.00511 -5.16786,9.3017 -2.7559,2.22002 -6.20036,3.32961 -10.33421,3.32961 h -12.28662 z" /></g></svg>
