<?xml version="1.0" encoding="UTF-8" standalone="no"?>
<!-- Created with Inkscape (http://www.inkscape.org/) -->

<svg
   width="251.84822"
   height="343.5307"
   viewBox="0 0 66.634841 90.892497"
   version="1.1"
   id="svg1"
   xml:space="preserve"
   xmlns="http://www.w3.org/2000/svg"
   xmlns:svg="http://www.w3.org/2000/svg"><defs
     id="defs1" /><g
     id="layer3"
     transform="translate(147.06734,-122.73847)"><g
       id="g52"
       style="display:inline"><path
         id="path14"
         style="font-style:italic;font-weight:bold;font-size:79.0222px;line-height:0.3;font-family:'JetBrainsMono Nerd Font';-inkscape-font-specification:'JetBrainsMono Nerd Font Bold Italic';text-align:center;text-anchor:middle;display:inline;fill:#000000;fill-opacity:1;stroke-width:0.384473"
         d="m -138.30229,127.7071 15.18564,37.07681 8.56795,-12.68812 c -0.33929,-1.06219 -0.67875,-2.18699 -1.01803,-3.37447 l -7.11946,-21.01422 z m 32.04455,42.5235 -9.45523,14.00328 c 0.44049,1.36769 0.94858,2.73543 1.52445,4.10311 l 8.15248,23.196 h 15.501889 z" /></g><g
       id="g13"
       transform="matrix(0.51993292,-0.09356608,0.09356608,0.51993292,-202.71873,112.47394)"><path
         style="display:inline;fill:#d20f39;fill-opacity:1;stroke-width:0.264583"
         d="m 107.55707,151.28664 95.07869,-95.078684 c 0,0 28.65583,6.460037 17.55808,17.558085 l -0.22085,0.220856 -94.74741,94.747403 z"
         id="path8" /><rect
         style="fill:#d20f39;fill-opacity:1;stroke-width:0.264583"
         id="rect8"
         width="2.6495035"
         height="60.216618"
         x="209.33675"
         y="-95.817764"
         transform="rotate(45)"
         ry="0" /><path
         style="display:inline;fill:#d20f39;fill-opacity:1;stroke-width:0.264583"
         d="m 103.8529,154.99081 19.93703,-19.93702 17.55808,17.55808 -0.22085,0.22086 -19.60575,19.60574 z"
         id="path9"
         transform="translate(-19.999584,20.25487)" /><path
         style="fill:#000000;fill-opacity:1;stroke-width:0.183074"
         d="m 72.547373,201.96403 2.384858,2.36934 -5.168048,2.7791 z"
         id="path10" /><path
         style="display:inline;fill:#d20f39;fill-opacity:1;stroke-width:0.248634"
         d="m 107.55707,152.34498 16.61017,16.38932 -2.94105,2.93867 -16.37751,-16.36431 z"
         id="path11" /><path
         style="display:inline;fill:#d20f39;fill-opacity:1;stroke-width:0.248634"
         d="m 83.853319,176.30402 16.610171,16.38932 -2.941051,2.93867 -16.37751,-16.36431 z"
         id="path12" /><path
         style="display:inline;fill:#d20f39;fill-opacity:1;stroke-width:0.232685"
         d="m 81.028598,180.31354 15.551838,15.33097 -20.58987,8.68886 -3.443194,-3.42768 z"
         id="path13" /></g></g></svg>
